<svg width="232" height="231" viewBox="0 0 232 231" fill="none" xmlns="http://www.w3.org/2000/svg">
<path fill-rule="evenodd" clip-rule="evenodd" d="M180.8 0.641678C170.766 2.79168 160.53 9.30468 154.667 17.2687C142.992 33.1277 143.649 56.6357 156.146 70.2307L158.674 72.9807H108.487C80.8837 72.9807 58.2997 72.5937 58.2997 72.1217C58.2997 69.9097 49.7967 61.9857 44.1207 58.9077C37.8207 55.4927 37.7477 55.4797 22.5127 55.1407C9.53472 54.8517 6.83973 55.0517 4.67873 56.4677C0.928728 58.9247 -0.849276 63.8567 0.392724 68.3547C2.02372 74.2637 4.71472 75.3217 19.6937 75.9427C34.2117 76.5447 37.6427 77.8767 40.9007 84.1747C43.5427 89.2847 62.3707 155.286 62.0757 158.406C61.8637 160.651 60.4057 162.4 55.7997 165.938C45.0187 174.216 41.3067 186.786 46.3557 197.915C47.8697 201.254 48.2057 203.426 47.7137 206.704C45.1247 223.971 63.8677 236.783 79.3727 228.345C84.4157 225.6 88.6927 220.448 89.8447 215.731L90.5167 212.981H108.283H126.05L126.601 215.731C127.499 220.212 132.777 226.549 137.526 228.848C143.586 231.782 151.589 231.712 157.393 228.674C162.541 225.979 167.718 218.954 168.611 213.452C170.711 200.513 159.858 187.864 146.8 188.03C143.024 188.079 136.715 190.296 134.405 192.386C132.894 193.754 129.186 193.981 108.376 193.981C86.4027 193.981 83.8577 193.806 81.4537 192.134C77.8907 189.655 72.7317 187.981 68.6507 187.981C65.6087 187.981 65.2997 187.71 65.2997 185.038C65.2997 178.857 64.0957 178.981 124.154 178.981H178.564L181.865 175.481C183.738 173.495 186.139 171.981 187.417 171.981C193.726 171.981 204.405 163.198 207.003 155.873C208.42 151.878 224.3 82.7507 224.3 80.5777C224.3 79.7607 223.217 77.8327 221.893 76.2937L219.486 73.4957L222.905 68.8377C238.066 48.1847 232.607 19.1017 211.162 6.27268C202.617 1.16068 189.622 -1.24932 180.8 0.641678ZM203.54 10.2787C211.017 13.7657 216.413 18.8557 220.37 26.1547C223.626 32.1597 223.8 32.9877 223.8 42.4807C223.8 51.2077 223.463 53.1997 221.152 58.1287C217.647 65.6047 211.588 71.4827 203.475 75.2797C197.776 77.9467 195.724 78.3787 188.824 78.3667C178.24 78.3477 170.52 75.0207 163.272 67.3577C156.811 60.5257 154.102 54.4277 153.517 45.4017C152.422 28.4797 162.052 14.1607 178.104 8.84468C185.786 6.29968 196.279 6.89168 203.54 10.2787ZM167.967 21.6477C165.956 23.6577 167.937 27.0797 175.528 34.7097L183.756 42.9807L175.528 51.2517C166.948 59.8767 165.399 63.2427 169.423 64.5197C171.156 65.0697 173.138 63.6097 180.194 56.5857L188.842 47.9787L197.299 56.4797C201.95 61.1547 206.537 64.9807 207.493 64.9807C208.448 64.9807 209.742 64.0237 210.368 62.8537C211.394 60.9357 210.641 59.8577 202.698 51.8787L193.89 43.0297L202.662 34.0647C210.448 26.1097 211.311 24.8687 210.332 23.0407C209.726 21.9077 208.467 20.9807 207.535 20.9807C206.602 20.9807 201.996 24.8067 197.299 29.4817L188.758 37.9827L180.301 29.4817C172.513 21.6527 169.729 19.8847 167.967 21.6477ZM38.8647 64.3587C45.4997 67.4477 50.5507 71.9717 52.6247 76.6817C53.5447 78.7707 59.7387 97.5807 66.3897 118.481C73.8697 141.99 79.3777 157.667 80.8337 159.59C85.6857 166.001 85.5207 165.981 133.768 165.981H177.433L177.116 168.731L176.8 171.481L121.755 171.981C71.3567 172.439 66.4827 172.63 64.0187 174.245C59.8757 176.961 57.9897 180.605 57.8757 186.117C57.7907 190.195 57.3167 191.459 55.3017 192.979C52.1857 195.33 51.3357 194.19 51.3147 187.632C51.2957 181.512 53.6147 176.575 58.1177 173.153C60.0517 171.684 63.4337 168.861 65.6337 166.88C69.1747 163.693 69.6267 162.776 69.5817 158.88C69.5147 153.194 49.8717 85.8697 46.6217 80.1887C41.5057 71.2467 33.5147 67.9807 16.7507 67.9807C7.51673 67.9807 7.29973 67.9277 7.29973 65.6477C7.29973 64.3637 7.59973 63.0137 7.96673 62.6477C8.33273 62.2807 14.2957 61.9847 21.2167 61.9907C32.3267 61.9987 34.3927 62.2767 38.8647 64.3587ZM89.4817 89.4807C93.6447 102.924 94.3347 101.981 80.3427 101.981H68.3857L65.2337 91.7307C63.4997 86.0927 61.8707 81.1297 61.6127 80.7007C61.3547 80.2707 66.8927 80.0457 73.9187 80.2007L86.6937 80.4807L89.4817 89.4807ZM138.3 90.9807V101.981H119.339H100.377L99.2327 97.7307C98.6037 95.3927 97.2417 90.7807 96.2067 87.4807C95.1717 84.1807 94.3197 81.1427 94.3127 80.7307C94.3057 80.3187 104.2 79.9807 116.3 79.9807H138.3V90.9807ZM172.722 82.3937C176.065 83.7207 181.388 85.1227 184.55 85.5087C187.712 85.8957 190.3 86.4227 190.3 86.6827C190.3 86.9417 189.331 90.4897 188.146 94.5667L185.992 101.981H165.646H145.3V90.9807V79.9807H155.972C164.906 79.9807 167.632 80.3737 172.722 82.3937ZM216.682 80.7907C216.958 81.2357 216.161 86.0737 214.911 91.5407L212.64 101.481L202.97 101.767C197.651 101.925 193.338 101.7 193.385 101.267C193.432 100.835 194.67 96.9487 196.135 92.6327L198.8 84.7837L204.3 82.4937C209.929 80.1507 215.789 79.3447 216.682 80.7907ZM97.7887 117.731C99.2247 122.544 100.827 127.786 101.35 129.38C101.872 130.975 102.3 132.677 102.3 133.162C102.3 133.647 97.0127 133.918 90.5497 133.763L78.7997 133.481L75.1027 122.481C73.0687 116.431 71.3817 110.919 71.3527 110.231C71.3127 109.298 74.3257 108.981 83.2387 108.981H95.1787L97.7887 117.731ZM138.081 121.231L137.8 133.481H123.877H109.954L106.257 121.231L102.56 108.981H120.461H138.362L138.081 121.231ZM182.853 111.731C182.52 113.244 180.969 118.756 179.407 123.981L176.566 133.481L160.933 133.756L145.3 134.032V121.506V108.981H164.379H183.459L182.853 111.731ZM210.309 110.231C210.314 110.919 209.145 116.544 207.711 122.731L205.104 133.981H194.702C188.981 133.981 184.3 133.61 184.3 133.156C184.3 132.472 189.424 114.469 190.824 110.231C191.116 109.347 194.03 108.981 200.769 108.981C207.722 108.981 210.302 109.319 210.309 110.231ZM107.504 150.069L110.072 159.156L99.7877 158.819C87.5617 158.417 86.4017 157.702 83.3567 148.683C82.2257 145.333 81.2997 142.23 81.2997 141.787C81.2997 141.344 86.6177 140.981 93.1177 140.981H104.937L107.504 150.069ZM138.3 149.981V158.981H127.897H117.495L115.339 151.731C114.153 147.743 112.954 143.694 112.674 142.731C112.208 141.128 113.26 140.981 125.233 140.981H138.3V149.981ZM173.912 142.549C173.582 143.411 172.339 147.461 171.151 151.549L168.992 158.981H157.146H145.3V149.981V140.981H159.907C172.76 140.981 174.442 141.169 173.912 142.549ZM202.809 144.231C200.651 155.023 196.442 161.485 189.985 163.92C185.634 165.56 183.721 165.199 182.495 162.509C181.875 161.149 180.201 159.743 178.774 159.385C177.057 158.954 176.368 158.246 176.735 157.29C177.04 156.496 178.261 152.501 179.449 148.413L181.608 140.981H192.534H203.459L202.809 144.231ZM76.8857 197.445C88.6697 205.167 83.2047 223.989 69.1817 223.977C58.2187 223.968 51.6237 213.82 56.0607 203.789C59.5447 195.913 69.7857 192.793 76.8857 197.445ZM152.629 196.345C154.424 197.095 157.11 199.155 158.597 200.922C160.774 203.509 161.299 205.142 161.296 209.308C161.29 218.444 155.928 223.985 147.1 223.977C134.415 223.966 127.958 208.42 137.034 199.741C141.936 195.053 146.932 193.965 152.629 196.345ZM64.1877 201.431C58.6777 204.53 58.0327 213.053 63.0117 216.969C69.2307 221.861 78.2997 217.668 78.2997 209.9C78.2997 202.584 70.4807 197.892 64.1877 201.431ZM141.86 202.112C138.122 205.053 136.978 208.475 138.347 212.622C139.722 216.789 142.735 218.981 147.088 218.981C151.655 218.981 154.224 217.408 155.794 213.65C157.59 209.351 156.653 205.456 153.105 202.47C149.478 199.418 145.448 199.29 141.86 202.112ZM126.907 202.563C126.573 203.433 126.3 204.558 126.3 205.063C126.3 205.586 118.606 205.981 108.407 205.981C89.9617 205.981 89.2997 205.84 89.2997 201.899C89.2997 201.374 97.4697 200.981 108.407 200.981C125.419 200.981 127.447 201.154 126.907 202.563ZM71.1237 209.317C71.5167 211.344 68.5917 212.673 67.0747 211.156C66.2877 210.369 66.3477 209.628 67.2917 208.49C68.8537 206.608 70.6747 207.001 71.1237 209.317ZM149.12 209.809C149.355 211.409 148.922 211.981 147.477 211.981C145.124 211.981 144.006 209.675 145.591 208.09C147.186 206.495 148.743 207.253 149.12 209.809Z" fill="black"/>
</svg>
