<svg width="70" height="70" viewBox="0 0 70 70" fill="none" xmlns="http://www.w3.org/2000/svg">
<path d="M0 34.6432C0 15.5103 15.5103 0 34.6432 0C53.7761 0 69.2864 15.5103 69.2864 34.6432C69.2864 53.7761 53.7761 69.2864 34.6432 69.2864C15.5103 69.2864 0 53.7761 0 34.6432Z" fill="#DCFCE7"/>
<path d="M51.6187 31.1789C52.4097 35.0611 51.846 39.0973 50.0214 42.6142C48.1968 46.1312 45.2216 48.9163 41.5921 50.5051C37.9626 52.094 33.898 52.3905 30.0763 51.3453C26.2546 50.3001 22.9067 47.9763 20.591 44.7615C18.2752 41.5466 17.1316 37.635 17.3508 33.679C17.5699 29.723 19.1387 25.9617 21.7955 23.0224C24.4522 20.0831 28.0363 18.1434 31.9501 17.5268C35.8639 16.9101 39.8708 17.6539 43.3026 19.634" stroke="#16A34A" stroke-width="4.3304" stroke-linecap="round" stroke-linejoin="round"/>
<path d="M29.4453 32.911L34.6418 38.1075L51.9634 20.7859" stroke="#16A34A" stroke-width="4.3304" stroke-linecap="round" stroke-linejoin="round"/>
</svg>
