<svg width="35" height="25" viewBox="0 0 35 25" fill="none" xmlns="http://www.w3.org/2000/svg">
<path d="M18.8551 18.4264C18.4357 18.988 17.7287 19.2688 16.734 19.2688C15.3279 19.2688 14.3712 18.5611 13.8639 17.1455C13.5846 16.3887 13.4448 15.3869 13.4443 14.1402C13.4443 12.8338 13.5842 11.7855 13.8639 10.9954C14.3893 9.50717 15.3701 8.76307 16.8062 8.76307C17.8124 8.76307 18.5548 9.10632 19.0334 9.79283C19.3636 10.3071 19.5739 10.8953 19.6471 11.5103H24C23.7614 9.08574 22.9927 7.39445 21.694 6.43639C20.3953 5.47834 18.7265 4.99954 16.6876 5C14.2886 5 12.4074 5.81164 11.0442 7.43493C9.68096 9.05821 8.99956 11.3298 9 14.2498C9 16.8353 9.6171 18.9402 10.8513 20.5644C12.0855 22.1886 14.0108 23.0005 16.6273 23C19.245 23 21.2203 22.0269 22.553 20.0807C23.3882 18.8733 23.8557 17.5931 23.9556 16.2399H19.616C19.5267 17.136 19.2731 17.8648 18.8551 18.4264Z" fill="#39BFF2"/>
<path d="M35 18.5785L30.812 23H26.674C25.7535 23 25 21.9094 25 20.5785V4.40576L29.1731 0H29.1867V5.10791H33.337L29.1867 9.48964V18.5785H35Z" fill="#39BFF2"/>
<path d="M29.989 9.00089C30.2017 8.9945 30.4142 9.02249 30.618 9.08378C30.6744 9.1024 30.7285 9.12711 30.7794 9.15746C30.8403 9.19444 30.8929 9.24374 30.9336 9.30219C30.9809 9.37377 31.004 9.45863 30.9994 9.54429C30.995 9.621 30.9755 9.6961 30.9421 9.76533C30.8868 9.8765 30.8151 9.97873 30.7294 10.0686C30.6533 10.1504 30.5721 10.2273 30.4863 10.2989C30.3228 10.4353 30.1512 10.5619 29.9725 10.6778C29.6251 10.9016 29.2663 11.1071 28.8974 11.2935C28.5338 11.4817 28.1656 11.6541 27.7967 11.8198C27.0596 12.154 26.312 12.452 25.5841 12.7658C25.4023 12.8455 25.2218 12.9251 25.0466 13.0093C24.8735 13.0898 24.7059 13.1815 24.5446 13.2836C24.3931 13.3816 24.2495 13.5046 24.2436 13.6125C24.2473 13.6522 24.259 13.6908 24.2779 13.7259C24.2968 13.761 24.3225 13.792 24.3536 13.8171C24.4264 13.8862 24.5064 13.9475 24.592 14C24.4865 13.9873 24.3833 13.9603 24.2851 13.9197C24.2318 13.8963 24.182 13.8657 24.1369 13.829C24.0848 13.7852 24.0453 13.7284 24.0222 13.6645C23.9984 13.5953 23.9936 13.521 24.0084 13.4494C24.0214 13.3849 24.0436 13.3227 24.0743 13.2645C24.1309 13.1619 24.1996 13.0665 24.2791 12.9803C24.4277 12.823 24.5902 12.6795 24.7646 12.5514C24.9339 12.4238 25.1072 12.3073 25.2837 12.1975C25.9839 11.7757 26.7111 11.4005 27.4608 11.0745C28.1966 10.7416 28.9449 10.4429 29.6603 10.1173C29.8381 10.0351 30.0133 9.95019 30.1793 9.85941C30.2623 9.81467 30.3407 9.76599 30.4138 9.71665C30.4807 9.67324 30.542 9.62176 30.5963 9.56337C30.6139 9.54467 30.6292 9.5239 30.6417 9.50153C30.6466 9.49427 30.65 9.48611 30.6517 9.47752C30.6534 9.46894 30.6534 9.4601 30.6516 9.45153C30.6246 9.38174 30.5756 9.32263 30.512 9.28312C30.3477 9.17151 30.1725 9.07695 29.989 9.00089Z" fill="white"/>
<path d="M7 6.89626V18.5289L3.11057 23V9.45525H0V5H5.44411C6.30024 5 7 5.85346 7 6.89626Z" fill="#39BFF2"/>
<path d="M3 2.00233C3 0.896954 3.89661 0 5 0C6.10338 0 7 0.896954 7 2.00233C7 3.10771 6.10462 4 5 4C3.89537 4 3 3.10638 3 2.00233Z" fill="#F19D26"/>
<path d="M6.28749 4C6.85736 4.24878 7.40596 4.54653 7.92751 4.89009C8.19185 5.06274 8.44737 5.24936 8.69307 5.44919C8.94648 5.65332 9.18222 5.8798 9.39762 6.12607C9.51065 6.25511 9.61333 6.39342 9.70463 6.53964C9.80465 6.69745 9.88364 6.86843 9.93948 7.04797C10.0027 7.25355 10.0166 7.47187 9.98015 7.68424C9.938 7.90374 9.84073 8.10797 9.69807 8.2765C9.57119 8.42509 9.42295 8.5527 9.25854 8.65488C9.10945 8.74881 8.95273 8.82921 8.79015 8.89517C8.63559 8.95825 8.47793 9.01292 8.31783 9.05897C8.16432 9.105 8.01869 9.14561 7.86846 9.18487C6.68044 9.50233 5.49634 9.77037 4.34112 10.1068C4.19679 10.1487 4.05357 10.1939 3.91143 10.2422C3.76908 10.2868 3.62804 10.3349 3.48962 10.3863C3.21522 10.481 2.94993 10.6018 2.69716 10.7471C2.5817 10.8134 2.47664 10.8974 2.38556 10.9962C2.3455 11.0368 2.3148 11.0861 2.29573 11.1406C2.27665 11.1951 2.26969 11.2533 2.27535 11.3109C2.30356 11.4483 2.3683 11.5749 2.46232 11.6765C2.56209 11.7942 2.67186 11.9025 2.79032 12C2.64305 11.943 2.50262 11.8687 2.37179 11.7787C2.22469 11.6832 2.10881 11.5443 2.03919 11.38C2.00333 11.2842 1.99182 11.1805 2.00573 11.0788C2.0203 10.9799 2.05303 10.8848 2.10216 10.7985C2.1934 10.6441 2.30942 10.5068 2.44526 10.3924C2.69685 10.1811 2.97058 9.99944 3.26133 9.85092C3.40303 9.77646 3.54604 9.70742 3.68905 9.64041C3.83205 9.5734 3.97835 9.51383 4.12332 9.45495C5.28708 8.98587 6.48495 8.67721 7.66904 8.38007L8.10791 8.26906C8.24306 8.23411 8.3764 8.19209 8.50741 8.14316C8.76195 8.0484 9.00139 7.92385 9.14178 7.7702C9.20676 7.70498 9.25442 7.62364 9.28019 7.53397C9.30357 7.4357 9.30357 7.33306 9.28019 7.23479C9.23362 7.00533 9.09323 6.75353 8.92923 6.51798C8.59269 6.04417 8.15645 5.60961 7.70578 5.19739C7.2551 4.78518 6.77622 4.38717 6.28749 4Z" fill="white"/>
</svg>
