<svg width="40" height="40" viewBox="0 0 40 40" fill="none" xmlns="http://www.w3.org/2000/svg">
<path d="M39.0276 19.6331C39.0276 8.79003 30.291 0 19.5138 0C8.73662 0 0 8.79003 0 19.6331C0 29.4325 7.13591 37.5548 16.4648 39.0276V25.3083H11.5101V19.6331H16.4648V15.3077C16.4648 10.3871 19.3781 7.66918 23.8354 7.66918C25.9704 7.66918 28.2035 8.05264 28.2035 8.05264V12.8842H25.7429C23.3188 12.8842 22.5628 14.3976 22.5628 15.9502V19.6331H27.9748L27.1097 25.3083H22.5628V39.0276C31.8917 37.5548 39.0276 29.4325 39.0276 19.6331Z" fill="#DBF5FF"/>
<path d="M27.1084 25.1544L27.9736 19.5137H22.5615V15.8532C22.5615 14.31 23.3175 12.8058 25.7416 12.8058H28.2022V8.00357C28.2022 8.00357 25.9691 7.62244 23.8341 7.62244C19.3768 7.62244 16.4635 10.3239 16.4635 15.2145V19.5137H11.5088V25.1544H16.4635V38.7903C18.4839 39.1065 20.5411 39.1065 22.5615 38.7903V25.1544H27.1084Z" fill="#020919"/>
</svg>
