<svg width="25" height="25" viewBox="0 0 25 25" fill="none" xmlns="http://www.w3.org/2000/svg">
<g clip-path="url(#clip0_1864_827)">
<path fill-rule="evenodd" clip-rule="evenodd" d="M12.0248 0C18.666 0 24.0495 5.51927 24.0495 12.3289C24.0495 17.7749 20.608 22.3948 15.833 24.0266C15.2233 24.148 15.0069 23.763 15.0069 23.4347C15.0069 23.0283 15.0213 21.7008 15.0213 20.051C15.0213 18.9015 14.6365 18.1512 14.2048 17.7688C16.8828 17.4634 19.6965 16.4207 19.6965 11.6854C19.6965 10.3386 19.23 9.2396 18.458 8.37622C18.5831 8.06478 18.9955 6.81076 18.3402 5.11286C18.3402 5.11286 17.3325 4.78251 15.037 6.37699C14.0762 6.10403 13.0469 5.96669 12.0248 5.96188C11.0027 5.96669 9.97454 6.10403 9.01496 6.37699C6.71703 4.78251 5.70695 5.11286 5.70695 5.11286C5.05401 6.81076 5.46646 8.06478 5.59031 8.37622C4.82193 9.2396 4.35176 10.3386 4.35176 11.6854C4.35176 16.4087 7.15954 17.4673 9.83024 17.7788C9.48633 18.0866 9.17489 18.6296 9.06667 19.4269C8.38126 19.7419 6.64007 20.2872 5.56746 18.4029C5.56746 18.4029 4.93135 17.2183 3.72407 17.1317C3.72407 17.1317 2.55165 17.1162 3.6423 17.8809C3.6423 17.8809 4.42992 18.2597 4.97705 19.6846C4.97705 19.6846 5.6829 21.8851 9.02819 21.1396C9.0342 22.1701 9.04502 23.1413 9.04502 23.4347C9.04502 23.7606 8.82376 24.142 8.22373 24.0278C3.44509 22.3984 0 17.7761 0 12.3289C0 5.51927 5.38469 0 12.0248 0Z" fill="#DBF5FF"/>
</g>
<defs>
<clipPath id="clip0_1864_827">
<rect width="24.0495" height="24.0495" fill="white"/>
</clipPath>
</defs>
</svg>
