<svg width="25" height="25" viewBox="0 0 25 25" fill="none" xmlns="http://www.w3.org/2000/svg">
<rect width="24.0495" height="24.0495" rx="12.0248" fill="#DBF5FF"/>
<path fill-rule="evenodd" clip-rule="evenodd" d="M12.0242 5.01031C10.1192 5.01031 9.88033 5.01839 9.13217 5.05253C8.38556 5.08658 7.87566 5.20517 7.42949 5.37858C6.96822 5.55781 6.57704 5.79766 6.18706 6.18761C5.79711 6.57759 5.55726 6.96877 5.37803 7.43003C5.20462 7.8762 5.08603 8.38611 5.05198 9.13271C5.01784 9.88088 5.00977 10.1197 5.00977 12.0248C5.00977 13.9298 5.01784 14.1686 5.05198 14.9168C5.08603 15.6634 5.20462 16.1733 5.37803 16.6195C5.55726 17.0808 5.79711 17.4719 6.18706 17.8619C6.57704 18.2518 6.96822 18.4917 7.42949 18.671C7.87566 18.8443 8.38556 18.9629 9.13217 18.997C9.88033 19.0311 10.1192 19.0392 12.0242 19.0392C13.9292 19.0392 14.1681 19.0311 14.9162 18.997C15.6629 18.9629 16.1728 18.8443 16.619 18.671C17.0802 18.4917 17.4714 18.2518 17.8614 17.8619C18.2513 17.4719 18.4912 17.0808 18.6704 16.6195C18.8438 16.1733 18.9624 15.6634 18.9964 14.9168C19.0306 14.1686 19.0386 13.9298 19.0386 12.0248C19.0386 10.1197 19.0306 9.88088 18.9964 9.13271C18.9624 8.38611 18.8438 7.8762 18.6704 7.43003C18.4912 6.96877 18.2513 6.57759 17.8614 6.18761C17.4714 5.79766 17.0802 5.55781 16.619 5.37858C16.1728 5.20517 15.6629 5.08658 14.9162 5.05253C14.1681 5.01839 13.9292 5.01031 12.0242 5.01031ZM9.68607 12.0248C9.68607 13.3161 10.7329 14.3629 12.0242 14.3629C13.3156 14.3629 14.3624 13.3161 14.3624 12.0248C14.3624 10.7334 13.3156 9.68661 12.0242 9.68661C10.7329 9.68661 9.68607 10.7334 9.68607 12.0248ZM8.4222 12.0248C8.4222 10.0354 10.0349 8.42275 12.0242 8.42275C14.0135 8.42275 15.6262 10.0354 15.6262 12.0248C15.6262 14.0141 14.0135 15.6267 12.0242 15.6267C10.0349 15.6267 8.4222 14.0141 8.4222 12.0248ZM15.7685 9.12216C16.2334 9.12216 16.6103 8.74532 16.6103 8.28044C16.6103 7.81555 16.2334 7.43869 15.7685 7.43869C15.3037 7.43869 14.9268 7.81555 14.9268 8.28044C14.9268 8.74532 15.3037 9.12216 15.7685 9.12216Z" fill="#020919"/>
</svg>
