<svg width="39" height="39" viewBox="0 0 39 39" fill="none" xmlns="http://www.w3.org/2000/svg">
<circle cx="19.3707" cy="19.3707" r="19.3707" fill="#DBF5FF"/>
<path fill-rule="evenodd" clip-rule="evenodd" d="M19.373 6.05347C15.7563 6.05347 15.3027 6.0688 13.8823 6.13361C12.4648 6.19826 11.4967 6.42341 10.6497 6.75264C9.77391 7.09292 9.03124 7.54829 8.29083 8.28864C7.55048 9.02904 7.09512 9.77171 6.75483 10.6475C6.4256 11.4945 6.20046 12.4626 6.1358 13.8801C6.07099 15.3005 6.05566 15.7541 6.05566 19.3709C6.05566 22.9876 6.07099 23.4411 6.1358 24.8616C6.20046 26.279 6.4256 27.2472 6.75483 28.0942C7.09512 28.97 7.55048 29.7127 8.29083 30.453C9.03124 31.1934 9.77391 31.6487 10.6497 31.9891C11.4967 32.3183 12.4648 32.5434 13.8823 32.6081C15.3027 32.6728 15.7563 32.6882 19.373 32.6882C22.9898 32.6882 23.4433 32.6728 24.8637 32.6081C26.2812 32.5434 27.2493 32.3183 28.0964 31.9891C28.9721 31.6487 29.7148 31.1934 30.4552 30.453C31.1956 29.7127 31.6509 28.97 31.9913 28.0942C32.3205 27.2472 32.5456 26.279 32.6102 24.8616C32.675 23.4411 32.6904 22.9876 32.6904 19.3709C32.6904 15.7541 32.675 15.3005 32.6102 13.8801C32.5456 12.4626 32.3205 11.4945 31.9913 10.6475C31.6509 9.77171 31.1956 9.02904 30.4552 8.28864C29.7148 7.54829 28.9721 7.09292 28.0964 6.75264C27.2493 6.42341 26.2812 6.19826 24.8637 6.13361C23.4433 6.0688 22.9898 6.05347 19.373 6.05347ZM14.9339 19.3709C14.9339 21.8225 16.9214 23.81 19.373 23.81C21.8247 23.81 23.8122 21.8225 23.8122 19.3709C23.8122 16.9192 21.8247 14.9317 19.373 14.9317C16.9214 14.9317 14.9339 16.9192 14.9339 19.3709ZM12.5344 19.3709C12.5344 15.5939 15.5961 12.5322 19.373 12.5322C23.1499 12.5322 26.2116 15.5939 26.2116 19.3709C26.2116 23.1477 23.1499 26.2094 19.373 26.2094C15.5961 26.2094 12.5344 23.1477 12.5344 19.3709ZM26.4818 13.8601C27.3645 13.8601 28.08 13.1446 28.08 12.262C28.08 11.3794 27.3645 10.6639 26.4818 10.6639C25.5993 10.6639 24.8838 11.3794 24.8838 12.262C24.8838 13.1446 25.5993 13.8601 26.4818 13.8601Z" fill="#020919"/>
</svg>
