<svg width="25" height="25" viewBox="0 0 25 25" fill="none" xmlns="http://www.w3.org/2000/svg">
<g clip-path="url(#clip0_1864_833)">
<path d="M12.0248 0C5.38296 0 0 5.38296 0 12.0248C0 18.6666 5.38296 24.0495 12.0248 24.0495C18.6666 24.0495 24.0495 18.6666 24.0495 12.0248C24.0495 5.38296 18.6666 0 12.0248 0ZM8.66158 17.0554H6.31769V9.55404H8.66158V17.0554ZM7.42623 8.61461H7.40744C6.55725 8.61461 6.00768 8.04156 6.00768 7.31349C6.00768 6.57134 6.57604 6.01238 7.44032 6.01238C8.3046 6.01238 8.83538 6.57134 8.85417 7.31349C8.85886 8.03686 8.30929 8.61461 7.42623 8.61461ZM18.0371 17.0554H15.3785V13.1756C15.3785 12.161 14.9652 11.4658 14.0492 11.4658C13.3494 11.4658 12.9595 11.9355 12.781 12.3864C12.7152 12.5461 12.7246 12.7716 12.7246 13.0018V17.0554H10.0895C10.0895 17.0554 10.1224 10.1788 10.0895 9.55404H12.7246V10.733C12.8796 10.2163 13.7204 9.48359 15.0638 9.48359C16.7313 9.48359 18.0371 10.5639 18.0371 12.8843V17.0554Z" fill="#DBF5FF"/>
</g>
<defs>
<clipPath id="clip0_1864_833">
<rect width="24.0495" height="24.0495" fill="white"/>
</clipPath>
</defs>
</svg>
