<svg width="424" height="252" viewBox="0 0 424 252" fill="none" xmlns="http://www.w3.org/2000/svg">
<path d="M354.926 139.456H361.666L352.999 163.464H346.378L337.756 139.456H344.802L349.802 157.166L354.926 139.456Z" fill="#F19D26"/>
<path d="M364.698 149.743C365.503 148.297 366.75 147.147 368.256 146.463C366.71 145.432 365.704 144.32 365.238 143.128C364.799 142.061 364.562 140.921 364.54 139.768C364.526 138.646 364.754 137.534 365.208 136.508C365.662 135.482 366.331 134.566 367.171 133.821C368.922 132.169 371.4 131.344 374.604 131.344C377.809 131.344 380.286 132.169 382.037 133.821C382.876 134.566 383.545 135.482 383.998 136.508C384.451 137.535 384.678 138.646 384.664 139.768C384.643 140.921 384.407 142.06 383.97 143.128C383.511 144.323 382.51 145.361 380.967 146.24C382.464 147.043 383.699 148.259 384.525 149.743C385.334 151.238 385.747 152.915 385.724 154.614C385.742 155.903 385.487 157.18 384.974 158.363C384.462 159.545 383.704 160.605 382.751 161.472C380.769 163.362 377.987 164.305 374.406 164.302C370.825 164.299 368.119 163.356 366.289 161.472C365.393 160.573 364.687 159.502 364.214 158.323C363.741 157.145 363.509 155.884 363.534 154.614C363.496 152.917 363.897 151.239 364.698 149.743ZM371.224 157.85C372.153 158.686 373.358 159.148 374.607 159.148C375.856 159.148 377.06 158.686 377.989 157.85C378.805 156.985 379.213 155.765 379.213 154.193C379.213 152.563 378.796 151.329 377.969 150.481C377.039 149.667 375.845 149.218 374.609 149.218C373.373 149.218 372.179 149.667 371.249 150.481C370.417 151.329 370.005 152.563 370.005 154.193C370.005 155.823 370.412 156.983 371.224 157.85ZM371.626 143.311C372.019 143.689 372.486 143.982 372.998 144.171C373.509 144.36 374.054 144.442 374.599 144.411C375.144 144.447 375.691 144.367 376.203 144.178C376.715 143.988 377.182 143.693 377.572 143.311C378.284 142.541 378.662 141.52 378.623 140.471C378.655 139.931 378.579 139.389 378.399 138.878C378.218 138.368 377.937 137.898 377.572 137.498C377.176 137.126 376.708 136.84 376.196 136.657C375.685 136.473 375.141 136.397 374.599 136.433C374.056 136.38 373.509 136.448 372.995 136.631C372.481 136.815 372.015 137.11 371.628 137.495C371.242 137.88 370.946 138.345 370.76 138.858C370.575 139.371 370.505 139.919 370.555 140.462C370.534 140.984 370.617 141.505 370.801 141.995C370.985 142.484 371.266 142.932 371.626 143.311Z" fill="#F19D26"/>
<path d="M390.204 156.879H396.879V163.464H390.204V156.879Z" fill="#F19D26"/>
<path d="M420.897 135.6C422.549 138.464 423.375 142.533 423.375 147.805C423.375 153.078 422.549 157.138 420.897 159.986C419.246 162.837 416.393 164.261 412.339 164.257C408.286 164.254 405.433 162.83 403.781 159.986C402.13 157.138 401.304 153.078 401.304 147.805C401.304 142.533 402.13 138.464 403.781 135.6C405.433 132.739 408.286 131.309 412.339 131.309C416.393 131.309 419.246 132.739 420.897 135.6ZM408.618 156.23C409.222 158.179 410.456 159.152 412.32 159.148C414.183 159.145 415.405 158.172 415.987 156.23C416.565 154.287 416.855 151.479 416.859 147.805C416.859 143.96 416.568 141.111 415.987 139.257C415.405 137.404 414.183 136.479 412.32 136.482C410.456 136.482 409.222 137.407 408.618 139.257C408.013 141.107 407.713 143.957 407.716 147.805C407.729 151.462 408.03 154.27 408.618 156.23Z" fill="#F19D26"/>
<path d="M102.443 190.045C105.28 191.249 107.759 193.162 109.643 195.6C111.451 197.912 112.659 200.636 113.157 203.529C113.598 206.551 113.787 209.604 113.722 212.657L113.613 251.591H97.0616V212.26C97.1336 210.273 96.747 208.296 95.9317 206.482C94.4947 203.611 91.8518 202.176 88.0031 202.176C83.5432 202.176 80.4626 204.028 78.7612 207.731C77.8395 209.975 77.3956 212.387 77.4579 214.812V251.596H61.1844V214.812C61.1844 211.152 60.8061 208.489 60.0496 206.824C58.6885 203.851 56.0242 202.364 52.0565 202.364C47.4315 202.364 44.3327 203.851 42.7602 206.824C41.8946 208.526 41.4602 211.056 41.4569 214.416V251.582H25.0693V189.931H40.778V198.945C42.78 195.734 44.6697 193.448 46.447 192.087C49.5854 189.669 53.6472 188.459 58.6323 188.459C63.3532 188.459 67.1689 189.498 70.0794 191.576C72.4614 193.558 74.2956 196.117 75.4064 199.01C77.5207 195.376 80.1471 192.711 83.2855 191.016C86.7318 189.291 90.5421 188.42 94.3956 188.474C97.1539 188.478 99.8859 189.011 102.443 190.045Z" fill="white"/>
<path d="M163.88 190.917C168.1 192.826 171.689 195.898 174.227 199.773C176.741 203.485 178.373 207.722 178.999 212.161C179.419 214.913 179.584 218.878 179.495 224.054H135.887C136.131 230.06 138.218 234.271 142.146 236.686C144.534 238.186 147.41 238.935 150.773 238.935C154.341 238.935 157.238 238.02 159.465 236.19C160.804 235.047 161.899 233.647 162.686 232.072H178.687C178.264 235.627 176.33 239.233 172.884 242.89C167.522 248.714 160.015 251.625 150.362 251.621C142.686 251.723 135.22 249.116 129.276 244.258C123.188 239.345 120.144 231.357 120.144 220.293C120.144 209.923 122.892 201.971 128.389 196.438C133.887 190.904 141.022 188.138 149.797 188.138C154.635 188.055 159.436 189.003 163.88 190.917ZM140.466 204.441C138.249 206.72 136.858 209.808 136.293 213.702H163.261C162.973 209.55 161.582 206.398 159.088 204.248C156.594 202.097 153.5 201.02 149.807 201.017C145.789 201.017 142.676 202.158 140.466 204.441Z" fill="white"/>
<path d="M228.697 190.917C232.916 192.827 236.503 195.898 239.039 199.772C241.554 203.484 243.185 207.722 243.807 212.161C244.233 214.913 244.406 218.877 244.327 224.054H200.719C200.964 230.06 203.05 234.27 206.978 236.685C209.366 238.185 212.242 238.935 215.605 238.935C219.173 238.935 222.07 238.02 224.297 236.19C225.636 235.047 226.731 233.647 227.518 232.072H243.499C243.08 235.627 241.145 239.232 237.697 242.89C232.335 248.714 224.827 251.624 215.174 251.621C207.498 251.723 200.032 249.116 194.089 244.257C187.997 239.345 184.953 231.357 184.956 220.293C184.956 209.923 187.705 201.971 193.202 196.437C198.699 190.904 205.835 188.137 214.609 188.137C219.449 188.054 224.252 189.002 228.697 190.917ZM205.283 204.44C203.07 206.72 201.679 209.807 201.111 213.702H228.078C227.791 209.549 226.4 206.398 223.906 204.247C221.411 202.097 218.318 201.02 214.624 201.016C210.607 201.016 207.493 202.158 205.283 204.44Z" fill="white"/>
<path d="M415.615 193.018C420.657 196.95 423.176 202.716 423.172 210.318C423.172 218.339 420.71 224.451 415.784 228.653C410.858 232.855 404.517 234.959 396.76 234.966C391.805 234.966 387.698 234.059 384.441 232.245C382.46 231.086 380.686 229.603 379.193 227.86V251.591H363.207V188.132H378.683V194.857C380.28 193.005 382.168 191.425 384.272 190.179C387.887 188.147 392.181 187.13 397.157 187.126C404.425 187.126 410.577 189.09 415.615 193.018ZM403.227 201.586C401.033 198.881 397.474 197.529 392.548 197.533C386.631 197.533 382.566 199.579 380.353 203.673C379.21 205.846 378.637 208.605 378.633 211.948C378.633 217.234 380.559 220.952 384.411 223.103C386.921 224.408 389.72 225.054 392.548 224.981C397.087 224.981 400.556 223.701 402.954 221.14C405.353 218.58 406.547 215.167 406.537 210.902C406.568 207.502 405.391 204.201 403.217 201.586H403.227Z" fill="white"/>
<path d="M354.811 188.113V251.601H339.033V241.458C338.874 241.641 338.503 242.216 337.888 243.162C337.292 244.102 336.56 244.948 335.718 245.675C333.156 247.954 330.693 249.51 328.285 250.348C325.584 251.23 322.755 251.654 319.915 251.601C310.688 251.601 304.472 248.298 301.268 241.691C299.484 238.057 298.59 232.68 298.587 225.561V188.113H315.351V225.353C315.351 228.868 315.761 231.511 316.58 233.281C318.05 236.426 320.923 237.997 325.198 237.994C330.675 237.994 334.426 235.762 336.451 231.299C337.505 228.887 338.03 225.696 338.027 221.725V188.113H354.811Z" fill="white"/>
<path d="M293.156 235.794L277.354 251.596H261.734C258.265 251.596 255.416 247.702 255.416 242.944V185.13L271.169 169.381H271.219V187.637H286.883L271.219 203.301V235.794H293.156Z" fill="white"/>
<path d="M272.603 202.35C273.393 202.329 274.183 202.432 274.941 202.657C275.411 202.796 275.823 203.083 276.116 203.474C276.207 203.603 276.272 203.748 276.309 203.901C276.362 204.06 276.381 204.229 276.364 204.396C276.351 204.682 276.28 204.962 276.156 205.219C275.949 205.633 275.682 206.014 275.363 206.349C275.081 206.655 274.779 206.943 274.461 207.211C273.851 207.72 273.21 208.192 272.543 208.623C269.953 210.244 267.244 211.668 264.441 212.885C261.696 214.129 258.916 215.244 256.205 216.413C254.867 216.958 253.571 217.602 252.33 218.341C251.77 218.712 251.235 219.163 251.21 219.575C251.221 219.723 251.264 219.867 251.335 219.998C251.406 220.128 251.503 220.242 251.621 220.333C251.891 220.592 252.187 220.823 252.503 221.022C252.112 220.967 251.729 220.864 251.364 220.714C251.141 220.635 250.938 220.509 250.768 220.346C250.597 220.183 250.462 219.986 250.373 219.768C250.286 219.509 250.267 219.233 250.318 218.965C250.369 218.725 250.452 218.494 250.566 218.276C250.78 217.896 251.036 217.54 251.329 217.216C252.447 216.087 253.704 215.106 255.07 214.297C257.677 212.724 260.386 211.325 263.177 210.11C265.918 208.866 268.703 207.751 271.369 206.537C272.033 206.235 272.682 205.917 273.301 205.58C273.869 205.29 274.392 204.917 274.852 204.475C274.916 204.405 274.973 204.329 275.021 204.247C275.021 204.218 275.055 204.188 275.05 204.163C275.046 204.138 275.05 204.099 275.05 204.059C275.05 203.881 274.798 203.638 274.555 203.425C273.94 203.005 273.286 202.645 272.603 202.35Z" fill="#11B4F8"/>
<path d="M144.945 133.395C141.81 137.406 136.524 139.411 129.087 139.411C118.575 139.411 111.423 134.356 107.63 124.247C105.543 118.843 104.497 111.689 104.494 102.785C104.494 93.4559 105.539 85.97 107.63 80.3274C111.558 69.6997 118.891 64.3858 129.627 64.3858C137.15 64.3858 142.7 66.8371 146.278 71.7397C148.747 75.412 150.319 79.6131 150.866 84.0043H183.409C181.625 66.6901 175.878 54.6121 166.169 47.7703C156.459 40.9286 143.983 37.5093 128.74 37.5126C110.805 37.5126 96.7417 43.3088 86.5501 54.9012C76.3585 66.4936 71.2643 82.7159 71.2676 103.568C71.2676 122.032 75.8811 137.064 85.108 148.663C94.335 160.261 108.729 166.059 128.29 166.056C147.86 166.056 162.627 159.107 172.591 145.209C178.835 136.586 182.33 127.443 183.077 117.78H150.633C149.966 124.179 148.07 129.384 144.945 133.395Z" fill="#39BFF2"/>
<path d="M271.353 134.133L239.43 166.056H207.889C200.872 166.056 195.129 158.182 195.129 148.573V31.8089L226.938 6.10352e-05H227.042V36.8782H258.677L227.042 68.5136V134.133H271.353Z" fill="#39BFF2"/>
<path d="M229.812 66.6158C231.413 66.5676 233.011 66.7785 234.545 67.2402C234.968 67.3804 235.375 67.5665 235.759 67.7952C236.217 68.0737 236.612 68.4451 236.918 68.8854C237.274 69.4245 237.448 70.0637 237.414 70.709C237.38 71.2868 237.234 71.8525 236.983 72.374C236.567 73.2114 236.027 73.9814 235.382 74.6584C234.81 75.2746 234.199 75.8539 233.554 76.3928C232.324 77.4209 231.033 78.3741 229.688 79.2471C227.075 80.9329 224.376 82.4811 221.601 83.8854C218.866 85.3027 216.096 86.601 213.321 87.8497C207.776 90.3671 202.151 92.6119 196.675 94.9756C195.308 95.5752 193.95 96.1748 192.632 96.8091C191.33 97.4161 190.069 98.1064 188.856 98.8755C187.716 99.6139 186.636 100.541 186.591 101.353C186.619 101.652 186.707 101.943 186.849 102.207C186.991 102.472 187.185 102.706 187.419 102.894C187.967 103.415 188.568 103.877 189.213 104.272C188.419 104.176 187.642 103.973 186.903 103.667C186.503 103.491 186.128 103.261 185.788 102.984C185.397 102.654 185.099 102.226 184.926 101.745C184.747 101.224 184.711 100.664 184.822 100.124C184.92 99.6389 185.087 99.17 185.318 98.7318C185.743 97.9588 186.261 97.24 186.859 96.5911C187.976 95.4065 189.199 94.3251 190.511 93.3601C191.784 92.3988 193.088 91.5217 194.416 90.6941C199.683 87.5171 205.154 84.6913 210.793 82.2352C216.329 79.7278 221.958 77.4781 227.339 75.0251C228.677 74.4057 229.996 73.7665 231.244 73.0826C231.869 72.7456 232.458 72.3789 233.008 72.0073C233.512 71.6803 233.973 71.2925 234.381 70.8527C234.514 70.7118 234.628 70.5554 234.723 70.3869C234.76 70.3322 234.785 70.2707 234.798 70.206C234.811 70.1414 234.811 70.0748 234.797 70.0102C234.594 69.4846 234.225 69.0393 233.747 68.7417C232.511 67.901 231.193 67.1887 229.812 66.6158Z" fill="white"/>
<path d="M57.453 50.4759V133.89L25.5303 165.952V68.8258H0V36.8783H44.683C51.7097 36.8783 57.453 42.9982 57.453 50.4759Z" fill="#39BFF2"/>
<path d="M25.2969 14.901C25.2969 6.67501 32.4525 6.10352e-05 41.2582 6.10352e-05C50.064 6.10352e-05 57.2196 6.67501 57.2196 14.901C57.2196 23.127 50.0739 29.7672 41.2582 29.7672C32.4426 29.7672 25.2969 23.1171 25.2969 14.901Z" fill="#F19D26"/>
<path d="M45.5201 30.5355C49.8248 32.3569 53.9689 34.5366 57.9086 37.0519C59.9054 38.3159 61.8357 39.6821 63.6916 41.1451C65.6059 42.6395 67.3866 44.2975 69.0137 46.1005C69.8676 47.0452 70.6432 48.0578 71.3328 49.1282C72.0884 50.2836 72.6851 51.5353 73.1069 52.8497C73.5843 54.3548 73.6897 55.9531 73.4141 57.5078C73.0957 59.1148 72.3609 60.61 71.2833 61.8438C70.3248 62.9316 69.2051 63.8658 67.9632 64.6139C66.8369 65.3016 65.6531 65.8902 64.425 66.3731C63.2575 66.8349 62.0665 67.2351 60.8571 67.5723C59.6975 67.9092 58.5974 68.2066 57.4626 68.494C48.4884 70.8181 39.5439 72.7804 30.8174 75.2433C29.7272 75.5505 28.6453 75.8809 27.5716 76.2343C26.4963 76.5614 25.4309 76.9132 24.3853 77.2898C22.3125 77.9832 20.3085 78.8674 18.3991 79.9311C17.5269 80.4165 16.7333 81.0314 16.0453 81.7547C15.7427 82.0518 15.5108 82.4132 15.3667 82.812C15.2226 83.2109 15.17 83.637 15.2128 84.0589C15.4259 85.0648 15.915 85.9914 16.6251 86.7349C17.3788 87.5967 18.208 88.3894 19.1028 89.1035C17.9904 88.6863 16.9296 88.1426 15.9413 87.4831C14.8301 86.7841 13.9547 85.7672 13.4289 84.5644C13.158 83.8629 13.071 83.1038 13.1761 82.3592C13.2862 81.6352 13.5334 80.9389 13.9046 80.3077C14.5937 79.1769 15.4701 78.1715 16.4963 77.3344C18.3968 75.7871 20.4645 74.4574 22.6608 73.3701C23.7312 72.825 24.8114 72.3196 25.8917 71.829C26.972 71.3384 28.0771 70.9023 29.1722 70.4712C37.9631 67.0371 47.0117 64.7774 55.9562 62.602L59.2714 61.7893C60.2923 61.5335 61.2995 61.2258 62.2892 60.8676C64.2119 60.1738 66.0207 59.2621 67.0811 58.1372C67.572 57.6597 67.932 57.0642 68.1267 56.4077C68.3033 55.6883 68.3033 54.9369 68.1267 54.2174C67.7749 52.5376 66.7144 50.6941 65.4755 48.9697C62.9334 45.5009 59.6381 42.3195 56.2337 39.3016C52.8293 36.2838 49.2119 33.37 45.5201 30.5355Z" fill="white"/>
</svg>
